<?xml version="1.0" standalone="no"?>
<!DOCTYPE svg PUBLIC "-//W3C//DTD SVG 1.1//EN" "http://www.w3.org/Graphics/SVG/1.1/DTD/svg11.dtd" >
<svg xmlns="http://www.w3.org/2000/svg">
<metadata>Generated by IcoMoon</metadata>
<defs>
<font id="icomoon" horiz-adv-x="1024">
<font-face units-per-em="1024" ascent="960" descent="-64" />
<missing-glyph horiz-adv-x="1024" />
<glyph unicode="&#x20;" horiz-adv-x="512" d="" />
<glyph unicode="&#xe900;" glyph-name="iconWorldLink" d="M937.207 733.033l-15.077-4.89-81.496-7.335-22.819-36.673-16.707 5.297-65.604 58.27-9.78 30.561-12.632 32.598-40.748 36.673-48.083 9.372v-22.004l46.453-46.045 23.226-27.301-26.079-13.447-21.189 6.112-31.784 13.039v25.264l-40.748 17.114-13.854-59.9-40.748-9.372 4.075-33.413 54.602-10.595 9.372 53.38 45.23-6.52 20.782-12.224h33.821l23.226-46.045 60.715-61.937-4.482-24.041-48.898 6.52-85.979-42.786-61.53-73.347-8.15-32.598h-22.004l-40.748 18.744-40.748-18.744 9.78-40.748 17.522 19.967h30.561l-2.445-37.896 25.264-7.335 25.264-28.116 40.748 11.409 46.86-7.335 54.602-14.669 27.301-3.26 46.045-52.565 88.831-52.565-54.195-109.205-62.752-30.154-22.819-61.122-88.016-58.677-9.372-33.821c226.606 55.746 392.046 257.187 392.046 497.268 0 106.328-32.45 205.077-87.988 286.883zM570.474 180.489l-37.081 69.272 34.228 71.309-34.228 10.187-38.303 38.711-85.164 19.559-28.524 59.085v-35.043h-12.224l-73.347 98.203v81.496l-53.788 88.016-85.571-15.484h-57.455l-28.931 19.152 37.081 30.561-36.673-8.557c-44.176-74.075-70.292-163.363-70.292-258.751 0-282.432 228.957-511.389 511.389-511.389 0.072 0 0.144 0 0.216 0 22.924 0.231 45.241 1.853 67.143 4.786l-8.476 60.819s23.634 92.091 23.634 95.351-23.634 81.496-23.634 81.496zM190.294 794.97l90.868 12.632 40.748 23.226 47.268-13.854 75.384 4.482 25.671 40.748 37.896-6.112 91.276 8.557 25.264 27.709 35.858 23.634 50.12-7.335 18.337 2.852c-63.713 30.754-138.549 48.726-217.582 48.726-158.087 0-299.38-71.905-392.958-184.793l-0.681-0.846zM533.8 909.065l52.158 28.931 33.413-18.744-48.898-37.896-46.045-2.852-20.782 13.854zM378.957 904.99l23.226-9.78 30.154 9.78 16.299-28.524-70.087-18.337-33.413 20.374s32.598 21.189 33.413 27.301z" />
<glyph unicode="&#xe901;" glyph-name="iconLieuInscription" horiz-adv-x="711" d="M355.456 960c-196.222-0.226-355.23-159.234-355.456-355.434 0-188.59 322.437-629.181 336.162-647.879l12.929-17.504c1.467-1.941 3.771-3.183 6.365-3.183 0.030 0 0.065-0.001 0.1-0.001 2.564 0 4.838 1.244 6.25 3.162l12.745 17.327c13.725 18.698 336.162 459.288 336.162 648.056-0.226 196.152-159.121 355.117-355.225 355.456zM355.456 731.848c70.308 0 127.304-56.996 127.304-127.304s-56.996-127.304-127.304-127.304c-70.308 0-127.304 56.996-127.304 127.304s56.996 127.304 127.304 127.304z" />
<glyph unicode="&#xe902;" glyph-name="iconTimeInscription" d="M512 960c-282.307 0-512-229.693-512-512s229.693-512 512-512 512 229.693 512 512-229.693 512-512 512zM727.309 106.072l-22.063 37.962c-2.539 4.261-7.122 7.071-12.362 7.074-0.024 0-0.052 0-0.080 0-2.604 0-5.040-0.713-7.126-1.956-4.28-2.461-7.158-7.074-7.158-12.36 0-2.616 0.705-5.068 1.936-7.175l22.060-37.928c-47.331-25.962-103.064-42.877-162.332-46.922l-1.239 53.524c0 14.883-12.065 26.947-26.947 26.947s-26.947-12.065-26.947-26.947v-53.592c-59.751 4.001-114.84 20.489-163.819 46.861l23.996 37.080c1.194 2.040 1.899 4.491 1.899 7.107 0 7.869-6.379 14.248-14.248 14.248-0.005 0-0.009 0-0.014 0-5.271-0.012-9.873-2.864-12.358-7.107l-21.729-38.131c-49.157 30.984-90.007 70.523-121.532 116.912l45.405 28.166c8.115 4.747 13.479 13.418 13.479 23.343 0 14.886-12.067 26.953-26.953 26.953-4.961 0-9.609-1.34-13.601-3.678l-46.256-26.878c-23.981 47.485-38.946 103.209-41.174 162.194l43.969 0.737c7.859 0.038 14.215 6.418 14.215 14.282 0 0.012 0 0.024 0 0.036-0.038 7.845-6.399 14.194-14.247 14.213h-44.061c1.924 60.513 16.95 117.084 42.314 167.564l45.332-29.021c3.715-2.056 8.146-3.266 12.859-3.266 14.883 0 26.947 12.065 26.947 26.947 0 9.67-5.094 18.151-12.745 22.905l-46.43 26.744c31.994 47.141 72.135 86.209 118.755 116.042l23.696-36.985c1.269-2.174 3.037-3.931 5.153-5.151 2.118-1.233 4.581-1.939 7.209-1.939s5.091 0.706 7.209 1.94c4.218 2.473 7.052 7.056 7.052 12.301 0 2.64-0.718 5.112-1.969 7.232l-22.094 37.963c47.381 25.975 103.178 42.881 162.511 46.889l1.228-53.525c0-14.883 12.065-26.947 26.947-26.947s26.947 12.065 26.947 26.947v53.592c59.752-3.999 114.84-20.488 163.819-46.861l-23.996-37.080c-1.236-2.073-1.966-4.571-1.966-7.24 0-5.2 2.773-9.753 6.921-12.26 2.086-1.222 4.518-1.922 7.113-1.922 0.009 0 0.017 0 0.026 0 0.001 0 0.004 0 0.006 0 5.272 0 9.877 2.857 12.351 7.107l21.999 38.232c49.168-30.985 90.028-70.524 121.565-116.913l-45.405-28.165c-7.765-4.82-12.859-13.301-12.859-22.971 0-14.883 12.065-26.947 26.947-26.947 4.713 0 9.144 1.21 12.998 3.336l46.244 26.709c23.952-47.447 38.903-103.123 41.14-162.055l-43.969-0.74c-7.855-0.019-14.215-6.391-14.215-14.248 0-0.024 0-0.047 0-0.071 0.030-5.244 2.878-9.819 7.107-12.288 2.093-1.223 4.528-1.923 7.126-1.923 0.006 0 0.011 0 0.017 0h44.024c-1.946-60.517-16.982-117.084-42.349-167.566l-45.331 29.258c-3.865 2.269-8.513 3.609-13.474 3.609-14.886 0-26.953-12.067-26.953-26.953 0-9.925 5.364-18.597 13.352-23.274l46.443-26.814c-31.985-47.138-72.115-86.205-118.722-116.042zM711.141 594.122l-172.834-95.899c-7.627 4.092-16.686 6.495-26.307 6.495s-18.681-2.404-26.611-6.644l-172.564 96.047c-4.733 2.675-10.393 4.251-16.421 4.251-18.691 0-33.842-15.152-33.842-33.842 0-12.663 6.954-23.701 17.252-29.504l176.506-97.94c5.461-26.079 28.265-45.383 55.579-45.383s50.118 19.305 55.514 45.014l176.402 98.222c10.467 5.891 17.421 16.929 17.421 29.592 0 18.691-15.152 33.842-33.842 33.842-6.028 0-11.688-1.576-16.59-4.339z" />
<glyph unicode="&#xe903;" glyph-name="iconFly" horiz-adv-x="1078" d="M1077.782 447.787c-0.927 44.264-36.447 79.934-80.564 81.098l-296.766 0.002-269.339 431.113h-107.565l134.883-431.113h-297.084l-80.674 107.565h-80.674l53.782-188.665-53.782-188.238h80.674l80.674 107.565h296.657l-134.456-431.54h107.565l269.339 431.113h296.657c44.226 1.167 79.747 36.836 80.672 81.013z" />
<glyph unicode="&#xe904;" glyph-name="iconQuotation" d="M440.934 914.944v-184.32c0.017-0.451 0.026-0.981 0.026-1.513 0-23.165-18.056-42.112-40.861-43.536-82.045-0.006-127.92-91.347-134.064-271.366h133.939c22.931-1.431 40.986-20.378 40.986-43.543 0-0.532-0.010-1.062-0.028-1.59l0.002-389.044c0.022-0.512 0.034-1.114 0.034-1.718 0-23.167-18.060-42.116-40.869-43.537l-359.139-0.006c-22.934 1.427-40.994 20.376-40.994 43.543 0 0.604 0.012 1.205 0.037 1.803l-0.003 389.034c-0.033 3.118-0.052 6.802-0.052 10.49 0 79.719 8.747 157.394 25.335 232.119 13.898 63.363 39.693 125.72 74.667 181.756 30.676 48.924 73.289 90.883 123.653 121.306 49.874 28.794 107.695 45.229 169.355 45.229 2.107 0 4.209-0.019 6.306-0.057 22.616-1.426 40.671-20.374 40.671-43.538 0-0.532-0.010-1.062-0.028-1.59zM983.040 685.773c22.931 1.431 40.986 20.378 40.986 43.543 0 0.532-0.010 1.062-0.028 1.59l0.002 184.244c0.013 0.39 0.020 0.849 0.020 1.309 0 23.162-18.052 42.108-40.854 43.536-1.952 0.042-4.105 0.062-6.263 0.062-61.68 0-119.522-16.436-169.384-45.167-50.296-30.456-92.836-72.341-124.006-122.079-34.428-55.126-60.22-117.48-74.749-184.043-15.977-71.589-24.723-149.337-24.723-229.129 0-3.615 0.018-7.226 0.054-10.833l-0.004-388.569c-0.022-0.512-0.034-1.114-0.034-1.718 0-23.167 18.060-42.116 40.869-43.537l357.091-0.006c22.934 1.427 40.994 20.376 40.994 43.543 0 0.604-0.012 1.205-0.037 1.803l0.003 389.034c0.017 0.451 0.026 0.981 0.026 1.513 0 23.165-18.056 42.112-40.861 43.536l-132.221 0.006c6.144 180.224 51.2 271.36 133.12 271.36z" />
<glyph unicode="&#xe905;" glyph-name="iconParticipate" horiz-adv-x="1412" d="M1383.94 932.411c-16.461 16.331-39.132 26.423-64.16 26.423s-47.7-10.092-64.166-26.429l-769.919-769.919-320.802 320.802c-16.461 16.331-39.132 26.423-64.16 26.423s-47.7-10.092-64.166-26.429c-16.325-16.455-26.417-39.126-26.417-64.155s10.092-47.7 26.429-64.166l388.806-384.956c16.599-16.413 39.038-26.951 63.924-28.221 25.371 1.205 47.829 11.758 64.402 28.226l834.080 834.080c17.089 17.071 27.66 40.665 27.66 66.727s-10.571 49.655-27.659 66.726z" />
<glyph unicode="&#xe906;" glyph-name="iconMore" d="M964.608 507.392h-393.216v393.216c0 32.801-26.591 59.392-59.392 59.392s-59.392-26.591-59.392-59.392v-393.216h-393.216c-32.801 0-59.392-26.591-59.392-59.392s26.591-59.392 59.392-59.392h393.216v-393.216c0-32.801 26.591-59.392 59.392-59.392s59.392 26.591 59.392 59.392v393.216h393.216c32.801 0 59.392 26.591 59.392 59.392s-26.591 59.392-59.392 59.392z" />
<glyph unicode="&#xe907;" glyph-name="iconMail" horiz-adv-x="1463" d="M115.699 899.491l526.629-417.579c21.713-16.048 49.012-25.686 78.562-25.686 3.709 0 7.383 0.152 11.016 0.45 2.433-0.258 5.824-0.387 9.246-0.387 29.907 0 57.508 9.872 79.723 26.536l526.284 416.667c41.891 33.247 32.582 60.509-21.278 60.509h-1188.904c-53.86 0-63.169-27.262-21.278-60.509zM1385.060 789.777l-575.834-437.527c-21.814-14.915-48.766-23.817-77.797-23.817s-55.984 8.902-78.276 24.125l-575.355 437.219c-43.221 31.917-77.797 14.629-77.797-39.231v-716.8c0-53.983 43.762-97.745 97.745-97.745h1267.366c53.983 0 97.745 43.762 97.745 97.745v716.8c0 53.86-34.577 71.148-77.797 38.566z" />
<glyph unicode="&#xe908;" glyph-name="iconHome" horiz-adv-x="1100" d="M1081.281 497.349l-166.554 166.554v192.551c0 34.799-28.21 63.009-63.009 63.009s-63.009-28.21-63.009-63.009v-66.534l-124.255 126.017c-29.701 28.467-70.085 45.993-114.561 45.993s-84.86-17.526-114.62-46.049l-416.767-418.533c-7.71-10.333-12.345-23.355-12.345-37.46 0-34.799 28.21-63.009 63.009-63.009 14.105 0 27.127 4.634 37.627 12.464l417.541 415.385c6.631 6.338 15.638 10.239 25.556 10.239s18.925-3.901 25.57-10.252l416.812-416.813c11.606-15.572 29.97-25.549 50.664-25.549 34.799 0 63.009 28.21 63.009 63.009 0 20.694-9.976 39.058-25.382 50.545zM572.806 705.322c-5.603 5.715-13.403 9.258-22.031 9.258s-16.428-3.543-22.026-9.252l-367.482-366.601c-5.712-5.602-9.253-13.401-9.253-22.027 0-0.002 0-0.003 0-0.005v-267.456c0.244-62.133 50.297-112.495 112.288-113.239l181.606-0.001v281.115h206.21v-281.115h181.535c62.784 0 113.68 50.896 113.68 113.68v267.015c0 0.001 0 0.003 0 0.004 0 8.626-3.541 16.424-9.248 22.022z" />
<glyph unicode="&#xe909;" glyph-name="iconDons" horiz-adv-x="1182" d="M1182.136 640.759c0 0.078 0 0.17 0 0.263 0 176.163-142.808 318.971-318.971 318.971-114.593 0-215.072-60.428-271.31-151.158-57.812 90.724-158.289 151.148-272.878 151.148-176.163 0-318.971-142.808-318.971-318.971 0-95.836 42.265-181.8 109.172-240.27l452.74-452.686c7.457-7.456 17.757-12.067 29.135-12.067s21.678 4.611 29.135 12.067l452.365 452.365c67.293 58.605 109.583 144.429 109.583 240.13 0 0.073 0 0.146 0 0.219z" />
<glyph unicode="&#xe90a;" glyph-name="iconDonner" horiz-adv-x="972" d="M565.613 279.709c-4.462 4.017-9.637 7.357-15.293 9.795-11.634 5.056-24.895 9.268-38.657 12.111l-1.337-91.338c21.597 2.16 47.188 9.179 58.635 27.104 3.434 5.532 5.469 12.244 5.469 19.431 0 3.263-0.419 6.427-1.207 9.443-1.178 5.164-3.879 9.83-7.603 13.448zM568.961 237.164v0zM407.419 426.241c-3.591-4.423-6.031-9.916-6.787-15.933-0.232-1.592-0.355-3.25-0.355-4.937 0-4.705 0.958-9.186 2.69-13.258 2.873-5.020 7.185-9.193 12.383-11.901 5.553-3.259 11.796-6.142 18.334-8.392 6.237-2.162 12.393-3.998 19.087-5.834v82.931c-17.952-2.253-33.652-10.504-45.329-22.652zM569.501 238.028v0zM547.256 737.232c89.194 65.438 148.692 212.834 112.086 219.313-48.7 8.531-154.415-28.939-205.815-35.634-72.456-7.667-151.176 68.677-195.773 26.132-36.066-34.554 25.808-160.462 122.668-215.318-288.638-124.072-694.545-746.808 13.606-792.053 979.835-62.522 489.162 676.62 153.227 797.452zM631.375 246.126c-4.020-25.81-18.738-47.557-39.392-60.909-23.47-14.884-51.368-24.081-81.316-25.358l-0.341-26.791c-0.144-7.726-3.905-14.545-9.656-18.852-5.357-3.965-12.016-6.32-19.225-6.32-4.298 0-8.401 0.837-12.154 2.357-9.317 3.468-16.072 12.298-16.518 22.762l-0.002 29.208q-7.451 1.188-14.794 3.024c-27.795 6.134-51.842 19.465-70.873 37.937-8.711 8.85-15.959 19.243-21.279 30.712-1.577 3.699-2.873 6.723-3.845 9.746-0.973 2.447-1.763 5.318-2.237 8.294-0.123 1-0.175 1.885-0.175 2.781 0 4.328 1.219 8.372 3.331 11.807 5.445 8.057 14.649 13.348 25.089 13.348 1.108 0 2.202-0.060 3.28-0.176 10.978-0.551 20.369-7.372 24.63-16.975 1.152-3.098 1.908-6.014 3.096-8.929 1.376-3.165 2.856-5.86 4.549-8.402 3.494-5.214 7.668-9.869 12.412-13.869 10.366-8.309 22.713-14.398 36.21-17.46l0.604 99.661c-28.479 5.208-53.866 15.147-76.554 29.058-9.516 6.36-18.079 15.337-24.314 25.857-5.782 10.601-9.062 22.775-9.062 35.716 0 0.254 0.001 0.508 0.004 0.761-0.005 0.289-0.008 0.675-0.008 1.063 0 12.935 3.199 25.122 8.848 35.815 5.852 10.817 13.781 20.262 23.266 27.841 21.795 16.441 48.364 27.299 77.277 30.214l0.652 28.021c0.144 7.726 3.905 14.545 9.656 18.852 5.357 3.965 12.016 6.32 19.225 6.32 4.298 0 8.401-0.837 12.154-2.357 9.334-3.444 16.103-12.288 16.519-22.766l0.002-27.8 10.798-1.512c29.022-3.874 54.797-15.462 75.864-32.613 9.047-7.795 16.747-17.39 22.469-28.194 1.575-2.985 2.955-6.009 4.159-9.121 1.116-2.882 1.936-5.63 2.519-8.465 0.259-1.455 0.375-2.753 0.375-4.078 0-3.889-0.998-7.545-2.752-10.726-5.239-8.642-14.711-14.405-25.528-14.405-0.61 0-1.215 0.018-1.816 0.054-11.079 0.157-20.701 6.589-25.433 15.92-1.264 2.865-1.912 5.781-3.1 8.588-1.415 3.009-2.999 5.596-4.828 7.987-3.693 4.852-8.199 9.014-13.323 12.298-11.559 6.972-24.929 11.751-39.223 13.569l-0.505-95.296c19.496-3.786 36.027-8.191 52.109-13.575 21.75-6.286 42.348-20.762 56.963-40.025-1.846 2.848-3.789 5.872 0.206-0.283s2.052-3.239 0 0c7.797-12.162 12.428-27.002 12.428-42.924 0-3.904-0.278-7.742-0.816-11.497zM568.637 236.516v0z" />
<glyph unicode="&#xe90b;" glyph-name="iconTelContact" d="M822.754-64c-54.805 1.931-106.368 13.594-153.741 33.306-145.668 61.685-272.128 149.589-376.922 258.491-109.71 105.518-197.738 231.967-257.886 373.147-44.123 120.206-44.123 214.011-2.799 255.334l18.596 19.422c38.844 41.324 82.647 86.366 140.087 82.647 49.833-6.681 92.107-34.395 118.212-73.761 117.746-146.080 63.612-198.148 3.693-258.067l-10.744-10.744c-9.918-9.918-28.927-56.2 146.699-231.826 43.458-45.228 90.9-85.98 141.972-121.92 27.455-18.167 71.671-43.375 89.853-24.366l10.744 10.744c59.919 61.159 111.987 113.64 257.033-3.306 40.623-25.946 68.864-68.211 75.527-117.331 2.574-58.707-43.708-102.51-82.552-141.355l-19.422-18.596c-23.242-19.775-53.607-31.804-86.782-31.804-3.635 0-7.236 0.144-10.799 0.428zM186.783 925.288c-41.324 0-78.515-38.844-111.161-73.556l-19.422-19.835c-31.406-31.406-28.1-114.467 8.265-211.164 61.070-143.76 146.437-266.089 252.103-367.414 102.1-106.377 224.421-191.737 361.018-250.137 103.844-39.081 186.904-44.040 218.31-10.981l19.835 19.009c35.538 33.472 75.622 71.903 73.969 114.053-7.276 39.399-30.341 72.354-62.248 92.643-121.642 97.859-155.528 63.56-211.728 6.534l-11.157-11.157c-26.86-26.86-70.25-21.075-129.756 17.356-56.293 39.539-105.624 81.92-150.516 128.6-146.188 146.202-192.883 235.461-147.427 279.264l12.397 12.81c57.027 56.2 91.738 90.086-5.785 211.164-20.958 32.66-54.369 55.769-93.375 62.688z" />
<glyph unicode="&#xe90c;" glyph-name="iconMailContact" horiz-adv-x="1562" d="M1561.928 830.048c-0.19 33.597-13.224 64.114-34.435 86.922l0.073-0.079c-23.969 26.492-58.464 43.075-96.833 43.109h-1299.53c-0.018 0-0.039 0-0.060 0-37.303 0-70.97-15.568-94.859-40.561l-0.047-0.050c-22.401-22.576-36.244-53.672-36.244-88 0-0.472 0.003-0.943 0.008-1.414l-0.001-764.023c-0.001-0.217-0.002-0.475-0.002-0.732 0-34.013 13.59-64.852 35.636-87.383l-0.022 0.022c23.831-24.3 57.006-39.362 93.698-39.362 0.226 0 0.451 0.001 0.677 0.002h1300.739c0.010 0 0.023 0 0.035 0 36.998 0 70.42 15.314 94.271 39.95l0.034 0.035c22.187 22.573 36.116 53.325 36.859 87.326zM1050.865 488.298l449.835 374.863c4.304-9.166 6.833-19.902 6.872-31.225v-765.983c-0.016-10.362-2.081-20.238-5.81-29.25zM1430.726 906.27c11.548-0.006 22.503-2.537 32.344-7.071l-682.107-563.97-681.625 562.294c9.24 4.944 20.116 8.106 31.665 8.738zM62.477 37.213c-3.557 8.422-5.623 18.214-5.623 28.488 0 0.088 0 0.177 0 0.265v764.081c-0.047 0.991-0.074 2.153-0.074 3.321 0 10.3 2.094 20.111 5.881 29.029l450.276-375.35zM133.701-10.27c-12.528 0.053-24.344 3.047-34.81 8.327l456.531 455.878 210.548-174.936c4.67-4.025 10.796-6.476 17.494-6.476s12.824 2.451 17.529 6.506l210.513 174.906 456.083-456.083c-10.019-5.075-21.835-8.069-34.345-8.122z" />
<glyph unicode="&#xe90d;" glyph-name="iconLieuContact" horiz-adv-x="776" d="M388.338-64c-0.099-0.001-0.215-0.001-0.332-0.001-15.931 0-30.031 7.839-38.655 19.869l-253.674 357.527c-24.105 31.181-45.614 66.517-62.997 104.149-10.63 24.41-18.508 49.101-23.811 74.733-5.511 25.56-8.571 52.186-8.867 79.476-0.002 0.269-0.002 0.324-0.002 0.379 0 214.301 173.725 388.026 388.026 388.026 53.586 0 104.635-10.862 151.065-30.505 139.432-58.932 237.273-196.97 237.273-357.859 0-0.046 0-0.092 0-0.139-0.212-54.611-11.694-106.492-32.239-153.508-18.013-38.414-39.719-73.641-64.974-105.961l-10.346-14.424-241.695-341.438c-8.571-12.344-22.676-20.324-38.644-20.324-0.045 0-0.090 0-0.134 0zM388.338 926.231c-0.093 0-0.203 0-0.313 0-195.651 0-354.257-158.606-354.257-354.257 0.078-24.945 2.693-49.234 7.599-72.681 5.071-23.413 12.505-45.987 22.045-67.417 17.454-36.292 38.303-69.451 62.475-99.85l10.437-14.566 242.321-341.438c2.586-3.556 6.732-5.841 11.413-5.841s8.827 2.285 11.385 5.8l253.605 357.112c23.35 29.332 44.199 62.491 61.179 97.859 9.809 22.353 17.038 44.949 21.911 68.408 4.892 23.38 7.507 47.669 7.584 72.555-0.172 195.753-158.852 354.327-354.569 354.327-0.989 0-1.978-0.004-2.965-0.012zM388.338 338.409c-128.995 0-233.566 104.571-233.566 233.566s104.571 233.566 233.566 233.566c128.995 0 233.566-104.571 233.566-233.566-0.178-128.923-104.642-233.388-233.549-233.566zM388.338 772.397c-110.038-0.178-199.172-89.422-199.172-199.484 0-110.172 89.312-199.485 199.485-199.485 110.062 0 199.306 89.134 199.484 199.154 0 110.362-89.452 199.814-199.797 199.814z" />
<glyph unicode="&#xe90e;" glyph-name="iconArrowTwo" horiz-adv-x="1650" d="M71.157 376.512h1335.105l-318.718-318.387c-11.302-12.59-18.213-29.322-18.213-47.668 0-39.482 32.006-71.488 71.488-71.488 18.346 0 35.078 6.911 47.735 18.271l440.776 440.122c12.89 12.929 20.861 30.77 20.861 50.472s-7.97 37.543-20.862 50.474l-440.51 440.841c-12.959 12.959-30.862 20.975-50.637 20.975-39.55 0-71.612-32.062-71.612-71.612 0-19.775 8.015-37.678 20.975-50.637l318.387-318.718h-1334.774c-39.482 0-71.488-32.006-71.488-71.488s32.006-71.488 71.488-71.488z" />
<glyph unicode="&#xe90f;" glyph-name="iconDonSolidarit" horiz-adv-x="820" d="M497.801 740.045c0-121.478-98.477-219.955-219.955-219.955s-219.955 98.477-219.955 219.955c0 121.478 98.477 219.955 219.955 219.955s219.955-98.477 219.955-219.955zM461.346 252.757c-31.568 35.415-50.859 82.372-50.859 133.835 0 47.117 16.17 90.458 43.264 124.775l-1.28 0.94c-49.283-32.326-109.674-51.56-174.558-51.56s-125.274 19.235-175.782 52.313c-60.079-89.636-99.947-224.121-102.132-375.809h401.135c13.177 38.287 29.896 71.466 50.398 101.884zM448.102 386.56c0.177-90.353 73.462-163.53 163.84-163.53 90.486 0 163.84 73.354 163.84 163.84s-73.354 163.84-163.84 163.84c-57.184 0-107.526-29.296-136.835-73.698-17.070-25.926-27.004-56.975-27.004-90.344 0-0.038 0-0.076 0-0.114zM742.878 216.303c-36.855-24.14-82.004-38.502-130.508-38.502-0.054 0-0.109 0-0.163 0-0.035 0-0.087 0-0.138 0-20.815 0-40.99 2.74-60.185 7.879-25.529 6.461-49.388 17.115-70.814 31.173-14.796-23.323-28.585-49.391-39.2-77.032-23.564-62.364-36.852-131.491-37.185-203.678l415.334-0.143c-1.638 113.323-31.403 213.948-77.141 280.303z" />
<glyph unicode="&#xe910;" glyph-name="iconDateTime" d="M512 960c-282.77 0-512-229.23-512-512s229.23-512 512-512c282.77 0 512 229.23 512 512s-229.23 512-512 512zM727.381 106.667l-22.187 37.888c-2.504 4.28-7.059 7.12-12.281 7.168-2.661-0.024-5.133-0.783-7.235-2.083-4.171-2.509-6.958-7.076-6.958-12.293 0-2.623 0.705-5.082 1.935-7.197l22.15-37.82c-47.403-26.033-103.23-42.99-162.602-47.036l-1.238 52.839c0 14.893-12.073 26.965-26.965 26.965s-26.965-12.073-26.965-26.965v-53.589c-59.665 4.009-114.672 20.47-163.587 46.789l23.982 37.179c1.208 2.056 1.921 4.529 1.921 7.169 0 7.873-6.346 14.264-14.202 14.335-5.236-0.048-9.791-2.888-12.258-7.1l-21.882-38.297c-49.203 31.005-90.087 70.583-121.628 117.021l45.51 28.046c8.131 4.752 13.507 13.439 13.507 23.381 0 14.906-12.084 26.99-26.99 26.99-4.964 0-9.614-1.34-13.61-3.678l-46.294-26.555c-24 47.445-38.999 103.123-41.278 162.063l44.009 0.753c7.785 0.171 14.032 6.522 14.032 14.333 0 0.361-0.013 0.72-0.040 1.075 0.003 7.87-6.416 14.289-14.333 14.289h-44.032c2.157 60.040 17.172 116.090 42.353 166.147l45.37-28.931c3.868-2.269 8.519-3.609 13.483-3.609 14.906 0 26.99 12.084 26.99 26.99 0 9.943-5.376 18.629-13.38 23.312l-46.208 26.693c31.976 46.879 72.030 85.736 118.51 115.416l23.826-36.909c1.25-2.138 2.982-3.87 5.054-5.084 2.122-1.243 4.595-1.956 7.234-1.956s5.112 0.713 7.236 1.957c4.163 2.507 6.95 7.074 6.95 12.291 0 2.623-0.705 5.082-1.935 7.197l-22.15 38.502c47.401 26.043 103.23 43.001 162.606 47.037l1.234-53.863c0-14.893 12.073-26.965 26.965-26.965s26.965 12.073 26.965 26.965v53.589c59.665-4.009 114.672-20.47 163.587-46.789l-23.982-37.179c-1.193-2.047-1.898-4.505-1.898-7.129 0-5.217 2.787-9.784 6.953-12.291 2.107-1.301 4.579-2.060 7.226-2.084 5.236 0.048 9.791 2.888 12.258 7.1l21.882 38.297c49.197-31.013 90.079-70.59 121.627-117.021l-45.51-28.046c-8.131-4.752-13.507-13.439-13.507-23.381 0-14.906 12.084-26.99 26.99-26.99 4.964 0 9.614 1.34 13.61 3.678l46.294 26.555c24-47.445 38.999-103.123 41.278-162.063l-44.009-0.753c-7.918 0-14.336-6.418-14.336-14.336 0.048-5.229 2.888-9.784 7.1-12.251 2.11-1.302 4.582-2.061 7.229-2.085h44.039c-1.958-60.501-16.995-117.050-42.354-167.517l-45.369 28.936c-3.868 2.269-8.519 3.609-13.483 3.609-14.906 0-26.99-12.084-26.99-26.99 0-9.943 5.376-18.629 13.38-23.312l46.549-26.693c-32.038-46.603-72.080-85.23-118.493-114.728zM710.997 594.091l-172.715-95.915c-7.623 4.072-16.674 6.464-26.283 6.464s-18.66-2.392-26.588-6.613l-172.409 96.063c-5.184 3.342-11.516 5.328-18.312 5.328-18.851 0-34.133-15.282-34.133-34.133 0-13.067 7.343-24.419 18.127-30.156l176.654-98.052c5.213-26.347 28.137-45.938 55.637-45.938s50.424 19.591 55.578 45.577l176.529 98.323c10.969 5.826 18.312 17.178 18.312 30.245 0 18.851-15.282 34.133-34.133 34.133-6.796 0-13.128-1.986-18.447-5.409z" />
<glyph unicode="&#xe911;" glyph-name="iconConstruire" horiz-adv-x="1038" d="M205.588 562.198c21.819 0.006 42.821 3.495 62.483 9.941l115.527-117.659 128.765 128.454-117.153 117.36c5.987 18.128 9.44 38.995 9.44 60.669 0 54.982-22.222 104.773-58.174 140.883-35.686 35.919-85.119 58.155-139.747 58.155-0.219 0-0.437 0-0.656-0.001-31.2-0.015-60.76-7.165-87.11-19.909-3.489-1.718-6.668-6.419-6.668-11.864 0-3.789 1.54-7.219 4.028-9.697l123.478-123.374c8.724-8.693 14.123-20.719 14.123-34.005s-5.398-25.313-14.121-34.004c-8.814-8.459-20.802-13.667-34.007-13.667s-25.193 5.208-34.022 13.682l-123.46 123.357c-2.475 2.467-5.89 3.992-9.66 3.992-5.39 0-10.052-3.116-12.283-7.644-12.337-25.185-19.531-54.714-19.531-85.923 0-109.764 88.981-198.745 198.745-198.745 0.001 0 0.003 0 0.004 0zM832.408 333.802c-21.854-0.002-42.892-3.491-62.59-9.941l-128.38 130.101-128.557-128.454 129.905-129.801c-5.994-18.143-9.451-39.028-9.451-60.719 0-54.949 22.184-104.717 58.084-140.835 35.683-35.916 85.117-58.153 139.745-58.153 0.255 0 0.51 0 0.764 0.001 31.195 0.030 60.753 7.178 87.108 19.91 3.446 1.731 6.594 6.412 6.594 11.829 0 3.754-1.512 7.155-3.96 9.628l-123.372 123.476c-8.724 8.693-14.123 20.719-14.123 34.005s5.398 25.313 14.121 34.004c8.814 8.459 20.802 13.667 34.007 13.667s25.193-5.208 34.022-13.682l123.253-123.357c2.475-2.467 5.89-3.992 9.66-3.992 5.39 0 10.052 3.116 12.283 7.644 12.337 25.185 19.531 54.714 19.531 85.923 0 109.729-88.925 198.689-198.64 198.745zM779.534 626.477s21.461-18.765 39.189-10.368c20.009 10.368 76.409-45.513 94.344-58.473v0l-9.849-10.368c-5.97-5.97-9.662-14.217-9.662-23.327 0-18.219 14.77-32.989 32.989-32.989 9.11 0 17.357 3.692 23.327 9.662l77.86 77.756c5.648 5.922 9.123 13.959 9.123 22.809 0 18.265-14.807 33.072-33.072 33.072-8.849 0-16.887-3.475-22.822-9.136l-12.946-12.947c-10.368 14.826-28.614 40.019-26.334 48.313 10.056 37.219-64.59 123.27-64.59 123.27-185.268 185.579-308.952 181.432-367.84 161.215-23.638-8.087-19.284-13.27 5.287-17.625 178.632-31.206 200.819-136.54 170.442-177.181-11.612-15.655 5.287-34.628 5.287-34.628l6.428-6.324-301.487-301.487c4.366-2.584 8.14-5.501 11.516-8.821l50.793-50.585c3.402-3.365 6.386-7.14 8.874-11.249l301.322 301.54zM386.501 378.693c-5.587 5.4-13.207 8.727-21.603 8.727-7.577 0-14.521-2.709-19.916-7.212l-335.547-300.41c-5.785-4.863-9.436-12.104-9.436-20.197 0-7.406 3.057-14.098 7.978-18.882l91.24-91.24c4.79-4.922 11.478-7.975 18.88-7.975 8.041 0 15.241 3.604 20.071 9.286l300.585 335.323c4.462 5.346 7.172 12.29 7.172 19.867 0 8.397-3.327 16.016-8.735 21.612z" />
<glyph unicode="&#xe912;" glyph-name="iconCalendar" horiz-adv-x="1025" d="M370.313 395.098c-0.23 12.846-10.698 23.171-23.577 23.171-0.073 0-0.147 0-0.22-0.001h-83.032c-0.062 0.001-0.135 0.001-0.209 0.001-12.879 0-23.347-10.325-23.576-23.15v-82.040c0.23-12.846 10.698-23.171 23.577-23.171 0.073 0 0.147 0 0.22 0.001h83.032c0.062-0.001 0.135-0.001 0.209-0.001 12.879 0 23.347 10.325 23.576 23.15zM578.025 395.098c-0.223 12.852-10.693 23.185-23.577 23.185-0.29 0-0.578-0.005-0.865-0.016l-81.977 0.001c-0.062 0.001-0.135 0.001-0.209 0.001-12.879 0-23.347-10.325-23.576-23.15v-82.040c0.672-12.483 10.958-22.351 23.548-22.351 0.083 0 0.167 0 0.25 0.001h82.006c0.062-0.001 0.135-0.001 0.209-0.001 12.879 0 23.347 10.325 23.576 23.15zM785.531 395.098c-0.23 12.846-10.698 23.171-23.577 23.171-0.073 0-0.147 0-0.22-0.001h-83.032c-0.062 0.001-0.135 0.001-0.209 0.001-12.879 0-23.347-10.325-23.576-23.15v-82.040c0.23-12.846 10.698-23.171 23.577-23.171 0.073 0 0.147 0 0.22 0.001h83.032c0.062-0.001 0.135-0.001 0.209-0.001 12.879 0 23.347 10.325 23.576 23.15zM370.313 192.308c-0.116 12.935-10.628 23.376-23.579 23.376-0.072 0-0.145 0-0.217-0.001h-83.033c-0.062 0.001-0.135 0.001-0.209 0.001-12.879 0-23.347-10.325-23.576-23.15v-82.040c0.23-12.846 10.698-23.171 23.577-23.171 0.073 0 0.147 0 0.22 0.001h83.032c0.062-0.001 0.135-0.001 0.209-0.001 12.879 0 23.347 10.325 23.576 23.15zM578.025 192.308c-0.108 12.941-10.624 23.39-23.58 23.39-0.289 0-0.576-0.005-0.862-0.015l-81.977 0.001c-0.062 0.001-0.135 0.001-0.209 0.001-12.879 0-23.347-10.325-23.576-23.15v-82.040c0.672-12.483 10.958-22.351 23.548-22.351 0.083 0 0.167 0 0.25 0.001h82.006c0.062-0.001 0.135-0.001 0.209-0.001 12.879 0 23.347 10.325 23.576 23.15zM785.531 192.308c-0.23 12.846-10.698 23.171-23.577 23.171-0.073 0-0.147 0-0.22-0.001h-83.032c-0.062 0.001-0.135 0.001-0.209 0.001-12.879 0-23.347-10.325-23.576-23.15v-82.040c0.23-12.846 10.698-23.171 23.577-23.171 0.073 0 0.147 0 0.22 0.001h83.032c0.062-0.001 0.135-0.001 0.209-0.001 12.879 0 23.347 10.325 23.576 23.15zM933.985 845.994v-123.028c-0.805-56.004-46.393-101.095-102.513-101.095-0.436 0-0.871 0.003-1.306 0.008l-65.549-0.001c-0.556-0.011-1.212-0.017-1.87-0.017-55.835 0-101.245 44.634-102.497 100.168l-0.002 124.374h-295.266v-124.258c-0.8-56.008-46.39-101.104-102.513-101.104-0.652 0-1.303 0.006-1.953 0.018l-65.517-0.001c-0.369-0.005-0.804-0.008-1.24-0.008-56.12 0-101.708 45.091-102.512 101.019l-0.001 123.103c-49.59-1.097-89.573-40.723-91.241-90.065l-0.004-726.018c0.578-51.084 42.124-92.273 93.29-92.273 0.218 0 0.436 0.001 0.654 0.002h837.374c0.128-0.001 0.28-0.001 0.433-0.001 50.919 0 92.331 40.702 93.477 91.345l0.002 726.79c-0.897 50.112-41.169 90.528-91.14 91.654zM903.638 73.586c-0.685-22.113-18.775-39.779-40.991-39.779-0.006 0-0.013 0-0.019 0h-702.077c-0.005 0-0.012 0-0.018 0-22.216 0-40.306 17.666-40.989 39.716l-0.002 375.092c0.685 22.113 18.775 39.779 40.991 39.779 0.006 0 0.013 0 0.019 0h702.487c0.005 0 0.012 0 0.018 0 22.216 0 40.306-17.666 40.989-39.716zM194.794 687.494h64.795c0.123-0.002 0.269-0.002 0.415-0.002 19.263 0 34.918 15.443 35.262 34.623v203.028c-0.23 19.302-15.931 34.86-35.266 34.86-0.145 0-0.29-0.001-0.434-0.003h-64.773c-0.062 0-0.134 0.001-0.207 0.001-19.334 0-35.034-15.557-35.265-34.837v-203.017c0.345-19.212 16.001-34.653 35.263-34.653 0.074 0 0.148 0 0.222 0.001zM763.797 687.494h64.795c0.123-0.002 0.269-0.002 0.415-0.002 19.263 0 34.918 15.443 35.262 34.623v203.028c-0.23 19.302-15.931 34.86-35.266 34.86-0.145 0-0.29-0.001-0.434-0.003h-64.773c-0.123 0.002-0.267 0.002-0.412 0.002-19.335 0-35.035-15.558-35.265-34.838v-203.017c0.344-19.213 16-34.655 35.263-34.655 0.146 0 0.292 0.001 0.438 0.003z" />
<glyph unicode="&#xe913;" glyph-name="iconArrowPage" horiz-adv-x="1650" d="M1579.025 519.488h-1335.105l318.718 318.718c12.889 12.93 20.858 30.77 20.858 50.472 0 39.486-32.009 71.495-71.495 71.495-19.784 0-37.691-8.036-50.636-21.021l-440.514-440.514c-12.989-12.945-21.026-30.853-21.026-50.637s8.037-37.692 21.024-50.635l440.514-440.183c12.946-12.987 30.853-21.023 50.637-21.023 39.486 0 71.495 32.009 71.495 71.495 0 19.702-7.969 37.542-20.86 50.474l-318.716 318.385h1335.105c39.482 0 71.488 32.006 71.488 71.488s-32.006 71.488-71.488 71.488z" />
<glyph unicode="&#xe914;" glyph-name="iconArrowFil" horiz-adv-x="1332" d="M855.104-46.663l461.387 458.591c9.369 9.063 15.186 21.748 15.186 35.792s-5.817 26.73-15.172 35.779l-461.401 461.4c-9.063 9.369-21.748 15.186-35.792 15.186s-26.73-5.817-35.779-15.172l-71.598-72.158c-9.369-9.063-15.186-21.748-15.186-35.792s5.817-26.73 15.172-35.779l204.702-204.701c4.434-4.852 7.15-11.338 7.15-18.459 0-15.135-12.269-27.404-27.404-27.404-0.154 0-0.308 0.001-0.462 0.004h-845.574c-0.861 0.054-1.868 0.085-2.882 0.085-26.872 0-48.655-21.784-48.655-48.655 0-1.014 0.031-2.020 0.092-3.019l-0.007-102.207c-0.078-1.030-0.122-2.232-0.122-3.443 0-26.872 21.784-48.655 48.655-48.655 1.027 0 2.046 0.032 3.057 0.094l849.933-0.007c14.91-1.029 26.615-13.377 26.615-28.458 0-6.58-2.228-12.64-5.971-17.466l-205.199-204.623c-9.369-9.063-15.186-21.748-15.186-35.792s5.817-26.73 15.172-35.779l72.717-69.361c8.519-9.309 20.722-15.124 34.283-15.124 0.531 0 1.059 0.009 1.586 0.027 12.234 0.736 23.090 6.408 30.638 15.046z" />
<glyph unicode="&#xe915;" glyph-name="iconApprendre" horiz-adv-x="1248" d="M685.158 332.097v27.867c0 33.79-27.392 61.182-61.182 61.182s-61.182-27.392-61.182-61.182v-27.741c0-33.79 27.392-61.182 61.182-61.182s61.182 27.392 61.182 61.182zM727.212 298.276c-13.619-44.94-54.673-77.091-103.236-77.091s-89.617 32.151-103.037 76.328l-421.63 0.763c-26.915 0.072-52.352 6.329-74.987 17.422l1.012-280.389c0.144-54.789 44.52-99.166 99.295-99.309h998.933c54.76 0.215 99.094 44.549 99.309 99.289v279.835c-21.717-10.584-47.241-16.794-74.21-16.847zM1144.463 800.903h-238.52c-14.977 90.652-92.72 158.963-186.444 159.097h-191.033c-93.598-0.517-171.135-68.631-186.301-157.977l-238.677-1.121c-0.646 0.015-1.407 0.023-2.171 0.023-55.306 0-100.264-44.306-101.317-99.361l-0.001-229.371c0-54.873 44.447-99.364 99.302-99.436h416.878c1.307 28.732 13.723 54.332 33.021 72.798 0.581 0.566 1.159 1.064 1.767 1.525 4.154 3.772 8.615 7.348 13.293 10.638 2.080 1.429 4.233 2.189 6.007 3.329 3.568 2.226 7.73 4.389 12.062 6.232 3.491 1.394 7.042 2.524 10.69 3.408 3.723 1.127 6.636 2.267 9.803 2.901 6.455 1.382 13.87 2.173 21.471 2.173s15.016-0.791 22.169-2.296c3.106-0.816 6.193-1.771 9.207-2.875 3.503-0.795 7.010-1.925 10.405-3.276 4.431-1.942 8.591-4.103 12.575-6.526l5.115-2.781c5.055-3.509 9.477-7.087 13.623-10.958l1.831-1.456c19.265-18.552 31.658-44.123 33.051-72.584l416.374-0.251c54.847 0 99.309 44.462 99.309 99.309v229.399c-1.054 55.153-46.012 99.459-101.319 99.459-0.763 0-1.525-0.008-2.284-0.025zM437.518 800.903c12.92 38.584 48.652 65.931 90.8 66.122h191.168c42.31-0.060 78.208-27.441 91.004-65.444z" />
<glyph unicode="&#xe916;" glyph-name="iconDonPartage" horiz-adv-x="983" d="M762.525 259.5c-31.011-8.406-57.472-24.798-77.928-46.841l-355.853 132.994c0 0.025 0 0.054 0 0.084 0 9.231-0.763 18.284-2.23 27.098-0.524 3.109-1.573 7.043-2.491 11.108l399.818 277.342c26.424-18.903 59.395-30.226 95.010-30.226 90.817 0 164.438 73.621 164.438 164.438s-73.621 164.438-164.438 164.438c-90.817 0-164.438-73.621-164.438-164.438 0-9.658 0.833-19.121 2.43-28.322-0.141-1.379 0.908-3.74 1.433-6.1l-402.965-279.702c-25.596 17.232-57.121 27.505-91.045 27.505-90.817 0-164.438-73.621-164.438-164.438s73.621-164.438 164.438-164.438c48.394 0 91.906 20.906 121.997 54.179l354.179-131.776c-0.005-0.477-0.008-1.040-0.008-1.604 0-90.817 73.621-164.438 164.438-164.438s164.438 73.621 164.438 164.438c0 90.817-73.621 164.438-164.438 164.438-14.963 0-29.46-1.999-43.238-5.744z" />
<glyph unicode="&#xe917;" glyph-name="iconDonAvenir" horiz-adv-x="1147" d="M1147.468 442.875l-573.734 517.125-573.734-517.125h135.707v-506.875h876.359v506.875zM734.379 98.94h-321.291v275.392h321.291z" />
</font>
</defs>
</svg>
